<?xml version="1.0" ?><svg enable-background="new 0 0 512 512" id="Layer_1" version="1.1" viewBox="0 0 512 512" xml:space="preserve" xmlns="http://www.w3.org/2000/svg" xmlns:xlink="http://www.w3.org/1999/xlink"><g><defs><circle cx="261.2" cy="786.1" id="XMLID_1_" r="183.7"/></defs><use fill="#E1C65B" overflow="visible" xlink:href="#XMLID_1_"/><clipPath id="XMLID_3_"><use overflow="visible" xlink:href="#XMLID_1_"/></clipPath><g clip-path="url(#XMLID_3_)"><path d="M256,532.1    c-114.4,0-228.9,29.9-330.5,89.7c-10.7-18.1-21.3-36.3-32-54.4C5,501.8,130.5,469,256,469C256,490,256,511,256,532.1z" fill="#ECD160" stroke="#1B1613" stroke-miterlimit="10" stroke-width="4.7334"/><path d="M586.5,621.8    C484.9,562,370.4,532.1,256,532.1c0-21,0-42.1,0-63.1c125.5,0,251,32.8,362.5,98.4C607.8,585.5,597.2,603.6,586.5,621.8z" fill="#ECD160" stroke="#1B1613" stroke-miterlimit="10" stroke-width="4.7334"/></g></g><path d="M244.1,416.6c-54.1-12.3-129.8-101.3-54.8-188.3s92.4-81.7,78.3-139.3c0,0,190.4,196.6,37.4,324  c0,0,22.5-43.5,1.5-73.5c-21-30-47.3-45.2-39.9-78.9C250,295.6,197.3,348.2,244.1,416.6z" fill="#E25226"/><linearGradient gradientUnits="userSpaceOnUse" id="SVGID_1_" x1="261.2179" x2="261.2179" y1="403.2839" y2="112.3543"><stop offset="0" style="stop-color:#FFFFFF;stop-opacity:0"/><stop offset="1" style="stop-color:#FFFFFF"/></linearGradient><path d="M228.3,403.3c-23.2-11.7-48-36.1-58.5-68c-8-24.3-10.2-61.8,24.8-102.5c18.4-21.3,33.2-37,45.1-49.5  c28.9-30.6,41.1-43.4,39.1-70.9c9.3,11.4,21.6,27.5,33.6,46.7c40,64.1,46.6,112.5,45,141.8c-1.7,32.6-14,61.9-36.6,87.3  c3.2-15.9,3.3-35.9-8.4-52.7c-5.8-8.3-11.8-15.3-17.6-22c-15-17.5-31.1-35.3-18.1-82.5c-9.2,21.8-23.7,40-28.3,47.6  c-10.3,16.8-23,37.6-28,61.3C215.8,361.7,218.3,382.6,228.3,403.3z" fill="url(#SVGID_1_)"/></svg>