<svg xmlns="http://www.w3.org/2000/svg" viewBox="0 0 100 100" width="100" height="100">
  <!-- Fundo do Ginásio -->
  <circle cx="50" cy="50" r="45" fill="#F3E5F5" stroke="#9C27B0" stroke-width="3"/>
  <!-- Símbolo de Veneno -->
  <path d="M50 15C35 15 25 25 25 40C25 55 35 60 50 60C65 60 75 55 75 40C75 25 65 15 50 15Z" fill="#9C27B0" stroke="#4A148C" stroke-width="2"/>
  <path d="M50 25C40 25 35 30 35 40C35 50 40 50 50 50C60 50 65 50 65 40C65 30 60 25 50 25Z" fill="#CE93D8" stroke="#9C27B0" stroke-width="1"/>
  <!-- Gotas de Veneno -->
  <path d="M30 65C30 70 35 75 40 70C45 65 40 60 35 60C30 60 30 60 30 65Z" fill="#9C27B0" stroke="#4A148C" stroke-width="2"/>
  <path d="M50 75C50 80 55 85 60 80C65 75 60 70 55 70C50 70 50 70 50 75Z" fill="#9C27B0" stroke="#4A148C" stroke-width="2"/>
  <path d="M70 65C70 70 75 75 80 70C85 65 80 60 75 60C70 60 70 60 70 65Z" fill="#9C27B0" stroke="#4A148C" stroke-width="2"/>
  <!-- Emblema do Ginásio -->
  <circle cx="50" cy="40" r="10" fill="#FFFFFF" stroke="#4A148C" stroke-width="2"/>
  <path d="M50 35C45 35 45 37 45 40C45 43 45 45 50 45C55 45 55 43 55 40C55 37 55 35 50 35Z" fill="#9C27B0" stroke="#4A148C" stroke-width="1"/>
</svg>
