<svg xmlns="http://www.w3.org/2000/svg" viewBox="0 0 100 100" width="100" height="100">
  <!-- Fundo do Ginásio -->
  <circle cx="50" cy="50" r="45" fill="#FFEBEE" stroke="#FF5722" stroke-width="3"/>
  <!-- Símbolo de Fogo -->
  <path d="M50 15C45 30 30 40 30 60C30 75 40 85 50 85C60 85 70 75 70 60C70 40 55 30 50 15Z" fill="#FF5722" stroke="#BF360C" stroke-width="2"/>
  <path d="M50 25C47 35 40 45 40 60C40 70 45 75 50 75C55 75 60 70 60 60C60 45 53 35 50 25Z" fill="#FFEB3B" stroke="#FF5722" stroke-width="1"/>
  <!-- Emblema do Ginásio -->
  <circle cx="50" cy="50" r="15" fill="#FFFFFF" stroke="#BF360C" stroke-width="2"/>
  <path d="M50 40C47 45 45 50 45 55C45 60 47 62 50 62C53 62 55 60 55 55C55 50 53 45 50 40Z" fill="#FF5722" stroke="#BF360C" stroke-width="1"/>
</svg>
