<svg xmlns="http://www.w3.org/2000/svg" viewBox="0 0 100 100" width="100" height="100">
  <!-- Fundo do Ginásio -->
  <circle cx="50" cy="50" r="45" fill="#E8F5E9" stroke="#4CAF50" stroke-width="3"/>
  <!-- Símbolo de Planta -->
  <path d="M50 15C40 15 25 25 25 45C25 55 30 60 40 60C40 60 35 80 50 85C65 80 60 60 60 60C70 60 75 55 75 45C75 25 60 15 50 15Z" fill="#4CAF50" stroke="#2E7D32" stroke-width="2"/>
  <path d="M50 25C45 25 35 30 35 45C35 50 37 55 45 55C45 55 40 70 50 75C60 70 55 55 55 55C63 55 65 50 65 45C65 30 55 25 50 25Z" fill="#A5D6A7" stroke="#4CAF50" stroke-width="1"/>
  <!-- Emblema do Ginásio -->
  <circle cx="50" cy="50" r="15" fill="#FFFFFF" stroke="#2E7D32" stroke-width="2"/>
  <path d="M50 40C45 40 40 45 40 50C40 52 41 54 43 54C43 54 42 58 50 60C58 58 57 54 57 54C59 54 60 52 60 50C60 45 55 40 50 40Z" fill="#4CAF50" stroke="#2E7D32" stroke-width="1"/>
</svg>
