<svg xmlns="http://www.w3.org/2000/svg" viewBox="0 0 100 100" width="100" height="100">
  <!-- Fundo do Ginásio -->
  <circle cx="50" cy="50" r="45" fill="#E3F2FD" stroke="#2196F3" stroke-width="3"/>
  <!-- Símbolo de Água -->
  <path d="M30 50C30 70 50 85 70 70C80 60 80 40 70 30C65 25 60 25 50 35C40 25 35 25 30 30C20 40 20 60 30 50Z" fill="#2196F3" stroke="#0D47A1" stroke-width="2"/>
  <path d="M40 50C40 65 50 70 60 65C65 60 65 50 60 45C57 42 55 42 50 47C45 42 43 42 40 45C35 50 35 60 40 50Z" fill="#90CAF9" stroke="#2196F3" stroke-width="1"/>
  <!-- Emblema do Ginásio -->
  <circle cx="50" cy="50" r="15" fill="#FFFFFF" stroke="#0D47A1" stroke-width="2"/>
  <path d="M45 50C45 55 50 60 55 55C58 52 58 48 55 45C53 43 52 43 50 45C48 43 47 43 45 45C42 48 42 52 45 50Z" fill="#2196F3" stroke="#0D47A1" stroke-width="1"/>
</svg>
