<svg xmlns="http://www.w3.org/2000/svg" viewBox="0 0 100 100" width="100" height="100">
  <!-- Cabeça e Rosto -->
  <circle cx="50" cy="40" r="25" fill="#FFD3B6" stroke="#000" stroke-width="2"/>
  <!-- Cabelo -->
  <path d="M30 25C30 15 40 10 50 10C60 10 70 15 70 25V45H30V25Z" fill="#8B4513" stroke="#000" stroke-width="2"/>
  <!-- Bandana -->
  <path d="M30 25C30 20 40 15 50 15C60 15 70 20 70 25V30H30V25Z" fill="#0000FF" stroke="#000" stroke-width="2"/>
  <!-- Olhos -->
  <circle cx="40" cy="40" r="3" fill="#000"/>
  <circle cx="60" cy="40" r="3" fill="#000"/>
  <!-- Boca -->
  <path d="M45 50C45 52 55 52 55 50" stroke="#000" stroke-width="2" fill="none"/>
  <!-- Corpo -->
  <path d="M35 65C35 55 65 55 65 65V85H35V65Z" fill="#0000FF" stroke="#000" stroke-width="2"/>
  <!-- Saia -->
  <path d="M35 75C35 85 65 85 65 75" fill="#FFFFFF" stroke="#000" stroke-width="2"/>
  <!-- Bolsa -->
  <rect x="60" y="70" width="10" height="10" fill="#FFD700" stroke="#000" stroke-width="1"/>
</svg>
