<svg xmlns="http://www.w3.org/2000/svg" viewBox="0 0 100 100" width="100" height="100">
  <!-- Cabeça e Rosto -->
  <circle cx="50" cy="40" r="25" fill="#FFD3B6" stroke="#000" stroke-width="2"/>
  <!-- Cabelo -->
  <path d="M30 30C30 20 40 15 50 15C60 15 70 20 70 30V40H30V30Z" fill="#4D4D4D" stroke="#000" stroke-width="2"/>
  <!-- Boné -->
  <path d="M25 30C25 25 35 20 50 20C65 20 75 25 75 30V35H25V30Z" fill="#FF0000" stroke="#000" stroke-width="2"/>
  <path d="M25 35H75V40H25V35Z" fill="#FFFFFF" stroke="#000" stroke-width="2"/>
  <!-- Olhos -->
  <circle cx="40" cy="40" r="3" fill="#000"/>
  <circle cx="60" cy="40" r="3" fill="#000"/>
  <!-- Boca -->
  <path d="M45 50C45 52 55 52 55 50" stroke="#000" stroke-width="2" fill="none"/>
  <!-- Corpo -->
  <path d="M35 65C35 55 65 55 65 65V85H35V65Z" fill="#FF0000" stroke="#000" stroke-width="2"/>
  <!-- Cinto -->
  <rect x="35" y="75" width="30" height="5" fill="#000"/>
  <!-- Pokébola no cinto -->
  <circle cx="50" cy="77.5" r="2.5" fill="#FFFFFF" stroke="#000" stroke-width="1"/>
  <line x1="47.5" y1="77.5" x2="52.5" y2="77.5" stroke="#000" stroke-width="1"/>
</svg>
