<svg xmlns="http://www.w3.org/2000/svg" viewBox="0 0 100 100" width="100" height="100">
  <!-- Cabeça e Rosto -->
  <circle cx="50" cy="40" r="25" fill="#FFD3B6" stroke="#000" stroke-width="2"/>
  <!-- Cabelo -->
  <path d="M30 30C30 20 40 15 50 15C60 15 70 20 70 30V40H30V30Z" fill="#000000" stroke="#000" stroke-width="2"/>
  <!-- Boné -->
  <path d="M25 30C25 25 35 20 50 20C65 20 75 25 75 30V35H25V30Z" fill="#FFD700" stroke="#000" stroke-width="2"/>
  <path d="M25 35H75V40H25V35Z" fill="#000000" stroke="#000" stroke-width="2"/>
  <!-- Olhos -->
  <circle cx="40" cy="40" r="3" fill="#000"/>
  <circle cx="60" cy="40" r="3" fill="#000"/>
  <!-- Boca -->
  <path d="M45 50C45 52 55 52 55 50" stroke="#000" stroke-width="2" fill="none"/>
  <!-- Corpo -->
  <path d="M35 65C35 55 65 55 65 65V85H35V65Z" fill="#FFD700" stroke="#000" stroke-width="2"/>
  <!-- Mochila -->
  <rect x="35" y="65" width="30" height="20" fill="#8B4513" stroke="#000" stroke-width="1"/>
  <!-- Detalhes da mochila -->
  <rect x="45" y="70" width="10" height="10" fill="#FFD700" stroke="#000" stroke-width="1"/>
</svg>
